<svg id="Layer_1" data-name="Layer 1" xmlns="http://www.w3.org/2000/svg" xmlns:xlink="http://www.w3.org/1999/xlink" viewBox="0 0 1920.53 1080.61"><defs><style>.cls-1{fill:#303030;}.cls-2{fill:#fff;opacity:0.66;}.cls-2,.cls-3,.cls-6{isolation:isolate;}.cls-3{opacity:0.75;fill:url(#linear-gradient);}.cls-4{fill:url(#linear-gradient-2);}.cls-5{fill:url(#linear-gradient-3);}.cls-6{opacity:0.7;fill:url(#linear-gradient-4);}</style><linearGradient id="linear-gradient" x1="321.91" y1="1172.42" x2="1727.58" y2="-219.67" gradientTransform="matrix(1, 0, 0, -1, 0, 1080.5)" gradientUnits="userSpaceOnUse"><stop offset="0" stop-opacity="0"/><stop offset="0.47"/><stop offset="1" stop-opacity="0"/></linearGradient><linearGradient id="linear-gradient-2" x1="1301.03" y1="531.73" x2="2255.12" y2="-575.15" xlink:href="#linear-gradient"/><linearGradient id="linear-gradient-3" x1="42.66" y1="1308.08" x2="850.75" y2="476.22" xlink:href="#linear-gradient"/><linearGradient id="linear-gradient-4" x1="-79.8" y1="1224.81" x2="2128.72" y2="-229.72" xlink:href="#linear-gradient"/></defs><rect class="cls-1" x="0.5" width="1920" height="1080"/><path class="cls-2" d="M1920,465q-23.65,21.44-49.12,40.41-17.75,13.24-36.35,25.26a671.52,671.52,0,0,1-108.41,56.82A680,680,0,0,1,1464.85,639h-2.43q-22.12-.06-44-1.52a676.86,676.86,0,0,1-214.82-50c-3.47-1.43-6.92-2.9-10.36-4.38A669,669,0,0,1,1049.12,498a668.69,668.69,0,0,1-58.51-51,668.62,668.62,0,0,1-57.84-64.39q-13.26-16.87-25.35-34.52a646.94,646.94,0,0,1-60.12-109A635.58,635.58,0,0,1,795,0V-.5H735V0a695.08,695.08,0,0,0,57.22,263,706,706,0,0,0,78.25,136.79q12.07,16.53,25.13,32.39a729.55,729.55,0,0,0,53,57.76,735.15,735.15,0,0,0,56.4,49.71,726.54,726.54,0,0,0,141.1,87.89q17,8.1,34.55,15.34a736,736,0,0,0,217.27,53.17q20.19,1.79,40.59,2.48,13.14.47,26.35.46c98.58,0,194.2-18.87,284.2-56.11a731.87,731.87,0,0,0,138.47-75.56q16.56-11.52,32.48-24l.33-.26a1.09,1.09,0,0,0,.17-.13V464.5C1920.33,464.66,1920.17,464.82,1920,465Z" transform="translate(0 0.5)"/><path class="cls-2" d="M1462.42,639a268.74,268.74,0,0,1,47.36-62c51.76-50.64,120.68-78.53,194.07-78.53a278.2,278.2,0,0,1,130.68,32.18,273.55,273.55,0,0,1,53,36.7q5.31,4.68,10.39,9.65A272.06,272.06,0,0,1,1920,601.33c.17.2.33.41.5.62V543.24l-.17-.16-.33-.31a314.36,314.36,0,0,0-49.12-37.41c-49.54-30.57-107-46.92-167-46.92-83.9,0-162.76,31.94-222,89.94a305.89,305.89,0,0,0-63.42,89.08q-2,4.23-3.86,8.54a301.62,301.62,0,0,0,0,239,306,306,0,0,0,67.28,97.62,315.13,315.13,0,0,0,222,89.93c81.15,0,157.58-29.88,216.15-84.32l.5-.47V929l-.5.63A274.52,274.52,0,0,1,1897.91,954c-51.77,50.63-120.68,78.52-194.06,78.52a278.13,278.13,0,0,1-133.11-33.47,274.6,274.6,0,0,1-61-45c-51.54-50.43-79.93-117.39-79.93-188.53A260.48,260.48,0,0,1,1462.42,639Z" transform="translate(0 0.5)"/><polygon class="cls-3" points="1920.5 0 1920.5 669.35 1920 669.82 1570.74 999.57 1540.34 1028.27 1485.55 1080 1485.02 1080.5 0 1080.5 0 580.23 0.5 579.76 77.19 507.36 91.89 493.48 121.13 465.87 614.03 0.5 614.56 0 1920.5 0"/><path class="cls-2" d="M329.32,615.63a235.5,235.5,0,0,0-36.18-45.29q-6-5.83-12.26-11.19A237.57,237.57,0,0,0,178.21,508a245.4,245.4,0,0,0-53.28-5.82q-10.64,0-21.12.9a241.14,241.14,0,0,0-26.62,3.76A237.65,237.65,0,0,0,.5,536.45l-.5.3v48.8l.5-.39A201.17,201.17,0,0,1,259.75,594c38.8,35.21,63.1,85.38,63.1,141A187.37,187.37,0,0,1,304,817a196.12,196.12,0,0,1-82.15,86A201.93,201.93,0,0,1,.5,884.71c-.17-.12-.34-.26-.5-.39v48.79l.5.31a240.34,240.34,0,0,0,124.43,34.25,245.11,245.11,0,0,0,54.19-6,237.75,237.75,0,0,0,114-62.12,231.7,231.7,0,0,0,53.3-79.35A225.84,225.84,0,0,0,359.87,772a229.31,229.31,0,0,0,3-37A227.56,227.56,0,0,0,329.32,615.63Z" transform="translate(0 0.5)"/><path class="cls-2" d="M1472.52,1079.5q-2.48-6-5-12A710.9,710.9,0,0,0,1311,840.6a728.7,728.7,0,0,0-229.63-152l-2.39-1a735.35,735.35,0,0,0-179-48.77,752.65,752.65,0,0,0-105.1-7.31,739.81,739.81,0,0,0-284.18,56.1A731.17,731.17,0,0,0,359.87,772,697.12,697.12,0,0,0,304,817q-12.94,11.52-25.38,23.68A729.71,729.71,0,0,0,221.88,903a707.77,707.77,0,0,0-99.66,164.61q-2.58,6-5,12l-.2.5h32.54l.21-.5v-.06A676.61,676.61,0,0,1,227,945.29a692.5,692.5,0,0,1,72.61-83.24q22.54-22,46.81-41.88A699.71,699.71,0,0,1,522.13,715.35a709.79,709.79,0,0,1,272.72-53.83,726.48,726.48,0,0,1,76.78,4,705.68,705.68,0,0,1,185.8,45.69q5.07,2,10.13,4.1A698.79,698.79,0,0,1,1290.06,862a681.06,681.06,0,0,1,149.88,217.39v.06l.21.5h32.54C1472.65,1079.84,1472.59,1079.67,1472.52,1079.5Z" transform="translate(0 0.5)"/><polygon class="cls-4" points="1920.5 0 1920.5 1080 1920 1080 1920 1080.5 666.87 1080.5 667.4 1080 1057.43 711.75 1081.41 689.12 1146.09 628.04 1193.21 583.56 1810.77 0.5 1811.29 0 1920.5 0"/><path class="cls-2" d="M1016.17,0a1.1,1.1,0,0,0-.08-.5H975.54l.09.5a499,499,0,0,1,7.22,84.89,493,493,0,0,1-40.66,196.87,501.62,501.62,0,0,1-71.71,118A519,519,0,0,1,666.15,551.6a533,533,0,0,1-385.3,7.55q-9.75-3.57-19.37-7.55A521.13,521.13,0,0,1,178.21,508a513.46,513.46,0,0,1-57.08-42.65q-12.61-10.83-24.59-22.55A505.59,505.59,0,0,1,.5,313.38c-.18-.33-.34-.65-.5-1v77.73l.5.72A551.36,551.36,0,0,0,68.57,471.4Q80,482.54,91.89,493q5.89,5.16,11.92,10.12a557,557,0,0,0,59.24,42.69,562.47,562.47,0,0,0,83.17,42.77q6.74,2.79,13.53,5.4a562.38,562.38,0,0,0,69.57,21.67,571.93,571.93,0,0,0,134.53,15.89,566.35,566.35,0,0,0,217.62-43A557.78,557.78,0,0,0,859.12,471.42q19.29-18.87,36.49-39.27a544.28,544.28,0,0,0,37.16-49.53,540.4,540.4,0,0,0,46.14-85,532.85,532.85,0,0,0,43.94-212.75A539.65,539.65,0,0,0,1016.17,0Z" transform="translate(0 0.5)"/><polygon class="cls-5" points="1577.1 0 1576.57 0.5 1049.12 498.49 1004.99 540.15 899.95 639.33 871.63 666.06 433.2 1080 432.67 1080.5 0 1080.5 0 0.5 0.5 0.5 0.5 0 1577.1 0"/><rect class="cls-6" y="0.5" width="1920" height="1080"/></svg>