<svg id="Layer_1" data-name="Layer 1" xmlns="http://www.w3.org/2000/svg" xmlns:xlink="http://www.w3.org/1999/xlink" viewBox="0 0 1920 1080"><defs><style>.cls-1{fill:#303030;}.cls-2{fill:#fff;opacity:0.66;}.cls-3,.cls-6{opacity:0.75;}.cls-3{fill:url(#linear-gradient);}.cls-4{fill:url(#linear-gradient-2);}.cls-5{fill:url(#linear-gradient-3);}.cls-6{fill:url(#linear-gradient-4);}.cls-7{opacity:0.3;}.cls-8{fill:url(#linear-gradient-5);}</style><linearGradient id="linear-gradient" x1="321.91" y1="-92.42" x2="1727.58" y2="1299.67" gradientUnits="userSpaceOnUse"><stop offset="0" stop-opacity="0"/><stop offset="0.47"/><stop offset="1" stop-opacity="0"/></linearGradient><linearGradient id="linear-gradient-2" x1="1301.03" y1="548.27" x2="2255.12" y2="1655.15" xlink:href="#linear-gradient"/><linearGradient id="linear-gradient-3" x1="42.66" y1="-228.08" x2="850.75" y2="603.78" xlink:href="#linear-gradient"/><linearGradient id="linear-gradient-4" x1="-79.8" y1="-144.81" x2="2128.72" y2="1309.72" xlink:href="#linear-gradient"/><linearGradient id="linear-gradient-5" x1="949.95" y1="-363.43" x2="965.14" y2="937.34" gradientUnits="userSpaceOnUse"><stop offset="0" stop-color="#fff"/><stop offset="0.22" stop-color="#c2c2c2" stop-opacity="0.76"/><stop offset="0.6" stop-color="#5b5b5b" stop-opacity="0.36"/><stop offset="0.87" stop-color="#191919" stop-opacity="0.1"/><stop offset="1" stop-opacity="0"/></linearGradient></defs><rect class="cls-1" x="0.5" y="-0.5" width="1920" height="1080"/><path class="cls-2" d="M1920,465q-23.65,21.44-49.12,40.41-17.75,13.25-36.35,25.26a671.39,671.39,0,0,1-108.41,56.82A680,680,0,0,1,1464.85,639h-2.43q-22.12-.06-44-1.52a677,677,0,0,1-214.82-50c-3.47-1.43-6.92-2.9-10.36-4.38A669.13,669.13,0,0,1,1049.12,498a668.36,668.36,0,0,1-58.51-51,666.94,666.94,0,0,1-57.84-64.39q-13.26-16.87-25.35-34.52a647.09,647.09,0,0,1-60.12-109A635.55,635.55,0,0,1,795,0c0-.16,0-.33,0-.5H735c0,.16,0,.33,0,.5a695.13,695.13,0,0,0,57.22,263,706.21,706.21,0,0,0,78.25,136.79q12.07,16.53,25.13,32.39a728.06,728.06,0,0,0,53,57.76A735.17,735.17,0,0,0,1005,539.65a726.63,726.63,0,0,0,141.1,87.89q17,8.1,34.55,15.34a735.81,735.81,0,0,0,217.27,53.17q20.19,1.79,40.59,2.48,13.14.47,26.35.46c98.58,0,194.2-18.87,284.2-56.11a731.7,731.7,0,0,0,138.47-75.56q16.56-11.52,32.48-24l.33-.26a1.09,1.09,0,0,0,.17-.13V464.5C1920.33,464.66,1920.17,464.82,1920,465Z"/><path class="cls-2" d="M1462.42,639a268.77,268.77,0,0,1,47.36-62c51.76-50.64,120.68-78.53,194.07-78.53a278.13,278.13,0,0,1,130.68,32.18,273.48,273.48,0,0,1,53,36.7q5.31,4.68,10.39,9.65A271.93,271.93,0,0,1,1920,601.33c.17.2.33.41.5.62V543.24l-.17-.16-.33-.31a314.09,314.09,0,0,0-49.12-37.41c-49.54-30.57-107-46.92-167-46.92-83.9,0-162.76,31.94-222,89.94a305.94,305.94,0,0,0-63.42,89.08q-2,4.23-3.86,8.54a301.62,301.62,0,0,0,0,239,306,306,0,0,0,67.28,97.62,315.13,315.13,0,0,0,222,89.93c81.15,0,157.58-29.88,216.15-84.32l.5-.47V929l-.5.63A275,275,0,0,1,1897.91,954c-51.77,50.63-120.68,78.52-194.06,78.52a278.12,278.12,0,0,1-133.11-33.47,274.68,274.68,0,0,1-61-45.05c-51.54-50.43-79.93-117.39-79.93-188.53A260.46,260.46,0,0,1,1462.42,639Z"/><polygon class="cls-3" points="1920.5 -0.5 1920.5 668.85 1920 669.32 1570.74 999.07 1540.34 1027.77 1485.55 1079.5 1485.02 1080 0 1080 0 579.73 0.5 579.26 77.19 506.86 91.89 492.98 121.13 465.37 614.03 0 614.56 -0.5 1920.5 -0.5"/><path class="cls-2" d="M329.32,615.63a235.31,235.31,0,0,0-36.18-45.29q-6-5.83-12.26-11.19A237.69,237.69,0,0,0,178.21,508a245.51,245.51,0,0,0-53.28-5.82q-10.64,0-21.12.9a240.16,240.16,0,0,0-26.62,3.76A237.67,237.67,0,0,0,.5,536.45l-.5.3v48.8l.5-.39a200.3,200.3,0,0,1,124.43-43,202.77,202.77,0,0,1,38.12,3.59A199.39,199.39,0,0,1,259.75,594c38.8,35.21,63.1,85.38,63.1,141a187.35,187.35,0,0,1-18.82,82,196.14,196.14,0,0,1-82.15,86A201.93,201.93,0,0,1,.5,884.71c-.17-.12-.34-.26-.5-.39v48.79l.5.31a240.34,240.34,0,0,0,124.43,34.25,245.06,245.06,0,0,0,54.19-6,237.77,237.77,0,0,0,114-62.12,231.85,231.85,0,0,0,53.3-79.35A225.93,225.93,0,0,0,359.87,772a229.7,229.7,0,0,0,3-37A227.53,227.53,0,0,0,329.32,615.63Z"/><path class="cls-2" d="M1472.52,1079.5q-2.48-6-5-12A711,711,0,0,0,1311,840.6a728.71,728.71,0,0,0-229.63-152l-2.39-1A735.5,735.5,0,0,0,900,638.83a752.9,752.9,0,0,0-105.1-7.31,739.79,739.79,0,0,0-284.18,56.1A730.94,730.94,0,0,0,359.87,772q-29,21-55.84,45-12.94,11.52-25.38,23.68a728.89,728.89,0,0,0-56.77,62.32,708,708,0,0,0-99.66,164.61q-2.58,6-5,12l-.2.5h32.54l.21-.5,0-.06A676.47,676.47,0,0,1,227,945.29a692.6,692.6,0,0,1,72.61-83.24q22.55-22,46.81-41.88A699.53,699.53,0,0,1,522.13,715.35a709.76,709.76,0,0,1,272.72-53.83,727.08,727.08,0,0,1,76.78,4,705.68,705.68,0,0,1,185.8,45.69q5.07,2,10.13,4.1a698.76,698.76,0,0,1,222.5,146.7,681.13,681.13,0,0,1,149.88,217.39l0,.06.21.5h32.54C1472.65,1079.84,1472.59,1079.67,1472.52,1079.5Z"/><polygon class="cls-4" points="1920.5 -0.5 1920.5 1079.5 1920 1079.5 1920 1080 666.87 1080 667.4 1079.5 1057.43 711.25 1081.41 688.62 1146.09 627.54 1193.21 583.06 1810.77 0 1811.29 -0.5 1920.5 -0.5"/><path class="cls-2" d="M1016.17,0c0-.17,0-.33-.08-.5H975.54l.09.5a499.36,499.36,0,0,1,7.22,84.89,493,493,0,0,1-40.66,196.87,501.86,501.86,0,0,1-71.71,118,515.79,515.79,0,0,1-39.33,43.06,518,518,0,0,1-165,108.78,533,533,0,0,1-385.3,7.55q-9.75-3.57-19.37-7.55A521,521,0,0,1,178.21,508a512.51,512.51,0,0,1-57.08-42.65q-12.61-10.83-24.59-22.55A505.42,505.42,0,0,1,.5,313.38c-.18-.33-.34-.65-.5-1v77.73l.5.72a551.07,551.07,0,0,0,68.07,80.57Q80,482.55,91.89,493q5.89,5.16,11.92,10.12a555.38,555.38,0,0,0,59.24,42.69,562.46,562.46,0,0,0,83.17,42.77q6.74,2.79,13.53,5.4a563.11,563.11,0,0,0,69.57,21.67,571.77,571.77,0,0,0,134.53,15.89,566.39,566.39,0,0,0,217.62-43A557.81,557.81,0,0,0,859.12,471.42q19.29-18.87,36.49-39.27a544.75,544.75,0,0,0,37.16-49.53,540.39,540.39,0,0,0,46.14-85,532.92,532.92,0,0,0,43.94-212.75A539.44,539.44,0,0,0,1016.17,0Z"/><polygon class="cls-5" points="1577.1 -0.5 1576.57 0 1049.12 497.99 1004.99 539.65 899.95 638.83 871.63 665.56 433.2 1079.5 432.67 1080 0 1080 0 0 0.5 0 0.5 -0.5 1577.1 -0.5"/><rect class="cls-6" width="1920" height="1080"/><g class="cls-7"><rect class="cls-8" x="1" width="1919" height="1080"/></g></svg>